<svg width="6" height="3" viewBox="0 0 6 3" fill="none" xmlns="http://www.w3.org/2000/svg">
<path fill-rule="evenodd" clip-rule="evenodd" d="M0.175459 0.152338C0.28784 0.0587904 0.440242 0.00623835 0.599148 0.00623835C0.758055 0.00623835 0.910456 0.0587904 1.02284 0.152338L2.99625 1.79553L4.96967 0.152338C5.02495 0.104678 5.09108 0.0666638 5.16419 0.0405119C5.23731 0.01436 5.31594 0.00059459 5.39552 1.88406e-05C5.47509 -0.000556909 5.554 0.0120684 5.62765 0.0371584C5.7013 0.0622483 5.7682 0.0993003 5.82447 0.146152C5.88074 0.193004 5.92524 0.248718 5.95537 0.310043C5.9855 0.371368 6.00067 0.437076 5.99998 0.503332C5.99929 0.569588 5.98276 0.635066 5.95135 0.695946C5.91994 0.756825 5.87428 0.811887 5.81705 0.857917L3.41994 2.8539C3.30756 2.94745 3.15516 3 2.99625 3C2.83735 3 2.68495 2.94745 2.57256 2.8539L0.175459 0.857917C0.0631125 0.764342 0 0.637443 0 0.505128C0 0.372812 0.0631125 0.245913 0.175459 0.152338Z" fill="black"/>
</svg>
